<svg width="28" height="28" viewBox="0 0 28 28" fill="none" xmlns="http://www.w3.org/2000/svg">
<g clip-path="url(#clip0_56_103)">
<path d="M20.4167 16.3333C20.0752 17.5215 19.3983 18.5859 18.4671 19.3991C17.5359 20.2124 16.39 20.7398 15.1667 20.9183C14.2101 21.0571 13.2353 21.0012 12.3008 20.7538C11.3663 20.5065 10.4915 20.0729 9.72872 19.4791C8.96599 18.8852 8.33112 18.1434 7.86222 17.2981C7.39332 16.4528 7.10006 15.5214 7.00005 14.56C6.92258 13.5947 7.04621 12.6239 7.36314 11.7089C7.68007 10.7939 8.18339 9.95462 8.84129 9.24409C9.49919 8.53356 10.2973 7.96726 11.1853 7.58099C12.0733 7.19472 13.0317 6.99688 14.0001 6.99998C14.9074 7.00126 15.8062 7.17548 16.6484 7.51331C16.781 7.57285 16.9311 7.58073 17.0692 7.53541C17.2073 7.49009 17.3235 7.39484 17.3951 7.26831L19.0751 4.17665C19.1112 4.10544 19.133 4.02779 19.139 3.94815C19.1451 3.86852 19.1354 3.78846 19.1105 3.71259C19.0856 3.63671 19.0459 3.56651 18.9938 3.506C18.9416 3.44549 18.8781 3.39587 18.8067 3.35998C17.0027 2.54321 15.0205 2.19908 13.0468 2.36C11.073 2.52091 9.17275 3.18158 7.52488 4.27977C5.877 5.37796 4.53579 6.87754 3.62755 8.63726C2.71931 10.397 2.27394 12.3589 2.33338 14.3383C2.44835 17.2782 3.65682 20.0692 5.72206 22.1647C7.78729 24.2601 10.5605 25.509 13.4984 25.6666C16.576 25.8031 19.5826 24.7168 21.8623 22.6448C24.1419 20.5728 25.5096 17.6832 25.6667 14.6066V12.2733C25.6637 12.1195 25.6013 11.9729 25.4926 11.8641C25.3838 11.7554 25.2372 11.693 25.0834 11.69H14.5834C14.4287 11.69 14.2803 11.7514 14.1709 11.8608C14.0615 11.9702 14.0001 12.1186 14.0001 12.2733V15.7733C14.0001 15.928 14.0615 16.0764 14.1709 16.1858C14.2803 16.2952 14.4287 16.3566 14.5834 16.3566H20.4167" fill="#E6E6E6"/>
</g>
<defs>
<clipPath id="clip0_56_103">
<rect width="28" height="28" fill="white"/>
</clipPath>
</defs>
</svg>
